<?xml version="1.0" standalone="no"?>
<!DOCTYPE svg PUBLIC "-//W3C//DTD SVG 20010904//EN"
 "http://www.w3.org/TR/2001/REC-SVG-20010904/DTD/svg10.dtd">
<svg version="1.0" xmlns="http://www.w3.org/2000/svg"
 width="512.000000pt" height="512.000000pt" viewBox="0 0 512.000000 512.000000"
 preserveAspectRatio="xMidYMid meet">

<g transform="translate(0.000000,512.000000) scale(0.100000,-0.100000)"
fill="#000000" stroke="none">
<path d="M2321 5110 c-497 -48 -990 -251 -1376 -565 -114 -92 -294 -274 -384
-387 -229 -287 -417 -675 -495 -1023 -49 -218 -60 -325 -60 -575 0 -250 11
-357 60 -575 79 -355 272 -749 509 -1040 92 -114 274 -294 387 -384 287 -229
675 -417 1023 -495 218 -49 325 -60 575 -60 250 0 357 11 575 60 261 58 603
204 828 353 389 259 688 599 893 1016 125 255 196 484 241 775 24 161 24 539
0 700 -45 291 -116 520 -241 775 -134 272 -283 480 -498 692 -211 209 -404
346 -673 478 -252 124 -486 197 -765 240 -126 19 -468 27 -599 15z m594 -339
c240 -40 419 -98 640 -206 570 -280 1011 -818 1170 -1431 54 -207 69 -331 69
-574 0 -243 -15 -367 -69 -574 -159 -613 -600 -1151 -1170 -1431 -221 -108
-397 -165 -645 -207 -180 -31 -520 -31 -700 0 -248 42 -424 99 -645 207 -570
280 -1011 818 -1170 1431 -54 207 -69 331 -69 574 0 243 15 367 69 574 55 212
170 470 290 651 382 574 972 932 1660 1005 129 14 434 4 570 -19z"/>
<path d="M3300 3509 c-14 -5 -186 -170 -382 -367 l-358 -357 -352 352 c-194
194 -366 357 -381 363 -73 27 -147 0 -194 -69 -25 -37 -30 -91 -13 -138 6 -15
169 -187 363 -380 l352 -353 -357 -357 c-312 -313 -358 -363 -368 -400 -30
-117 77 -222 195 -192 34 9 94 64 398 367 l357 357 353 -352 c193 -194 365
-357 380 -363 47 -17 101 -12 138 13 69 47 96 121 69 194 -6 15 -169 187 -363
381 l-352 352 357 358 c196 196 362 370 368 385 27 73 0 147 -69 194 -36 25
-96 30 -141 12z"/>
</g>
</svg>
