<?xml version="1.0" standalone="no"?>
<!DOCTYPE svg PUBLIC "-//W3C//DTD SVG 20010904//EN"
 "http://www.w3.org/TR/2001/REC-SVG-20010904/DTD/svg10.dtd">
<svg version="1.0" xmlns="http://www.w3.org/2000/svg"
 width="512.000000pt" height="512.000000pt" viewBox="0 0 512.000000 512.000000"
 preserveAspectRatio="xMidYMid meet">

<g transform="translate(0.000000,512.000000) scale(0.100000,-0.100000)"
fill="#000000" stroke="none">
<path d="M2328 4946 c-427 -55 -820 -247 -1124 -550 -358 -357 -564 -853 -564
-1357 0 -615 336 -1319 966 -2025 300 -336 879 -854 954 -854 57 0 435 322
737 627 629 635 1024 1282 1143 1872 42 212 50 393 25 601 -94 793 -662 1443
-1430 1639 -213 55 -498 73 -707 47z m500 -491 c286 -56 539 -191 747 -400
210 -209 343 -459 402 -752 24 -121 24 -393 0 -518 -116 -597 -569 -1050
-1162 -1161 -134 -25 -393 -26 -518 -1 -291 58 -544 193 -752 402 -210 209
-343 459 -402 752 -24 122 -24 404 0 526 97 486 421 883 871 1068 103 42 253
83 361 98 98 14 354 6 453 -14z"/>
<path d="M1920 3987 c-49 -16 -133 -102 -148 -153 -17 -59 -17 -1209 0 -1268
16 -55 99 -138 154 -154 59 -17 1209 -17 1268 0 55 16 138 99 154 154 17 59
17 1209 0 1268 -16 55 -99 138 -154 154 -55 16 -1222 15 -1274 -1z m1255 -172
l25 -24 0 -296 0 -295 -640 0 -640 0 0 295 0 296 25 24 24 25 591 0 591 0 24
-25z m-800 -960 c16 -15 25 -36 25 -55 0 -19 -9 -40 -25 -55 -23 -24 -31 -25
-135 -25 -104 0 -112 1 -135 25 -16 15 -25 36 -25 55 0 19 9 40 25 55 23 24
31 25 135 25 104 0 112 -1 135 -25z m640 0 c16 -15 25 -36 25 -55 0 -19 -9
-40 -25 -55 -23 -24 -31 -25 -135 -25 -104 0 -112 1 -135 25 -16 15 -25 36
-25 55 0 19 9 40 25 55 23 24 31 25 135 25 104 0 112 -1 135 -25z"/>
<path d="M1554 3641 c-43 -26 -89 -85 -103 -130 -6 -21 -11 -89 -11 -150 0
-105 1 -113 25 -136 15 -16 36 -25 55 -25 19 0 40 9 55 25 25 24 25 25 25 230
0 113 -3 205 -7 205 -5 0 -22 -9 -39 -19z"/>
<path d="M3520 3455 c0 -205 0 -206 25 -230 15 -16 36 -25 55 -25 19 0 40 9
55 25 24 23 25 31 25 136 0 131 -11 175 -58 229 -29 35 -78 70 -97 70 -3 0 -5
-92 -5 -205z"/>
<path d="M1923 2216 c3 -21 18 -54 33 -73 42 -55 78 -65 220 -61 105 3 127 6
150 24 39 28 63 63 70 102 l7 32 -226 0 c-124 0 -233 3 -243 7 -15 6 -16 2
-11 -31z"/>
<path d="M2951 2243 l-233 -3 6 -32 c9 -44 52 -97 94 -115 26 -11 66 -14 158
-11 132 3 153 11 196 69 20 26 36 101 22 97 -5 -2 -114 -4 -243 -5z"/>
</g>
</svg>
